[img]http://img407.imageshack.us/img407/641/mysuperexgirlfriend.jpg[/img]

[b][size=200][color=black]PLOT[/color][/size][/b]

[code]When a regular guy dumps a superhero of her neediness, 
she uses her powers to make his life a living hell. [/code]

[b][size=200][color=black]IMDB[/color][/size][/b]

[code]http://www.imdb.com/title/tt0465624/[/code]

[b][size=200][color=black]MOVIE INFO[/color][/size][/b]

[code]My Super Ex-Girlfriend [2006] DVDRip x264 AAC-V3nom

Format                                   : MPEG-4
Format profile                           : Base Media / Version 2
Codec ID                                 : mp42
File size                                : 347 MiB
Duration                                 : 1h 32mn
Overall bit rate mode                    : Variable
Overall bit rate                         : 524 Kbps
Encoded date                             : UTC 2012-11-13 20:38:09
Tagged date                              : UTC 2012-11-13 21:03:09

Video
ID                                       : 1
Format                                   : AVC
Format/Info                              : Advanced Video Codec
Format profile                           : Main@L2.1
Format settings, CABAC                   : Yes
Format settings, ReFrames                : 4 frames
Codec ID                                 : avc1
Codec ID/Info                            : Advanced Video Coding
Duration                                 : 1h 32mn
Bit rate mode                            : Variable
Bit rate                                 : 396 Kbps
Width                                    : 628 pixels
Height                                   : 254 pixels
Display aspect ratio                     : 2.472
Frame rate mode                          : Constant
Frame rate                               : 25.000 fps
Color space                              : YUV
Chroma subsampling                       : 4:2:0
Bit depth                                : 8 bits
Scan type                                : Progressive
Bits/(Pixel*Frame)                       : 0.099
Stream size                              : 260 MiB (75%)
Writing library                          : x264 

Audio
ID                                       : 2
Format                                   : AAC
Format/Info                              : Advanced Audio Codec
Format profile                           : LC
Codec ID                                 : 40
Duration                                 : 1h 32mn
Bit rate mode                            : Variable
Bit rate                                 : 128 Kbps
Maximum bit rate                         : 232 Kbps
Channel(s)                               : 2 channels
Channel positions                        : Front: L R
Sampling rate                            : 48.0 KHz
Compression mode                         : Lossy
Delay relative to video                  : 80ms
Stream size                              : 84.8 MiB (24%)
Encoded date                             : UTC 2012-11-13 20:38:09
Tagged date                              : UTC 2012-11-13 21:03:06[/code]

[b][size=200][color=black]SCREENSHOTS[/color][/size][/b]

[img]http://img850.imageshack.us/img850/5927/mysuperexgirlfriend2006.jpg[/img]

[img]http://kastatic.com/i2/users/133df62bbf28e62494bb17fe11078f1a.gif[/img][img]http://kastatic.com/i2/users/133df62bbf28e62494bb17fe11078f1a.gif[/img]